<mxfile host="app.diagrams.net" modified="2021-12-15T14:51:32.468Z" agent="5.0 (Windows NT 10.0; Win64; x64) AppleWebKit/537.36 (KHTML, like Gecko) Chrome/96.0.4664.93 Safari/537.36" etag="JJTzAwOP6isB439BQvsk" version="14.8.0" type="github">
  <diagram id="z5N2JQMyNdlXCb7IMfbB" name="Page-1">
    <mxGraphModel dx="942" dy="614" grid="1" gridSize="10" guides="1" tooltips="1" connect="1" arrows="1" fold="1" page="1" pageScale="1" pageWidth="850" pageHeight="1100" math="0" shadow="0">
      <root>
        <mxCell id="0" />
        <mxCell id="1" parent="0" />
        <mxCell id="CMeHVCq6akD1vDtVrRgv-13" style="edgeStyle=orthogonalEdgeStyle;rounded=0;orthogonalLoop=1;jettySize=auto;html=1;exitX=1;exitY=0.25;exitDx=0;exitDy=0;entryX=0;entryY=0.25;entryDx=0;entryDy=0;" edge="1" parent="1" source="CMeHVCq6akD1vDtVrRgv-1" target="CMeHVCq6akD1vDtVrRgv-3">
          <mxGeometry relative="1" as="geometry" />
        </mxCell>
        <mxCell id="CMeHVCq6akD1vDtVrRgv-21" style="edgeStyle=orthogonalEdgeStyle;shape=link;rounded=0;orthogonalLoop=1;jettySize=auto;html=1;exitX=0.5;exitY=1;exitDx=0;exitDy=0;entryX=0.5;entryY=0;entryDx=0;entryDy=0;" edge="1" parent="1" source="CMeHVCq6akD1vDtVrRgv-1" target="CMeHVCq6akD1vDtVrRgv-11">
          <mxGeometry relative="1" as="geometry" />
        </mxCell>
        <mxCell id="CMeHVCq6akD1vDtVrRgv-1" value="Riswyn" style="rounded=0;whiteSpace=wrap;html=1;" vertex="1" parent="1">
          <mxGeometry x="150" y="260" width="120" height="60" as="geometry" />
        </mxCell>
        <mxCell id="CMeHVCq6akD1vDtVrRgv-2" value="Andre Brand" style="rounded=0;whiteSpace=wrap;html=1;" vertex="1" parent="1">
          <mxGeometry x="610" y="260" width="120" height="60" as="geometry" />
        </mxCell>
        <mxCell id="CMeHVCq6akD1vDtVrRgv-14" style="edgeStyle=orthogonalEdgeStyle;rounded=0;orthogonalLoop=1;jettySize=auto;html=1;exitX=0;exitY=0.75;exitDx=0;exitDy=0;entryX=1;entryY=0.75;entryDx=0;entryDy=0;" edge="1" parent="1" source="CMeHVCq6akD1vDtVrRgv-3" target="CMeHVCq6akD1vDtVrRgv-1">
          <mxGeometry relative="1" as="geometry" />
        </mxCell>
        <mxCell id="CMeHVCq6akD1vDtVrRgv-23" style="edgeStyle=orthogonalEdgeStyle;shape=link;rounded=0;orthogonalLoop=1;jettySize=auto;html=1;exitX=0.5;exitY=1;exitDx=0;exitDy=0;" edge="1" parent="1" source="CMeHVCq6akD1vDtVrRgv-3" target="CMeHVCq6akD1vDtVrRgv-16">
          <mxGeometry relative="1" as="geometry" />
        </mxCell>
        <mxCell id="CMeHVCq6akD1vDtVrRgv-3" value="Dagnal" style="rounded=0;whiteSpace=wrap;html=1;" vertex="1" parent="1">
          <mxGeometry x="325" y="260" width="120" height="60" as="geometry" />
        </mxCell>
        <mxCell id="CMeHVCq6akD1vDtVrRgv-7" style="edgeStyle=orthogonalEdgeStyle;rounded=0;orthogonalLoop=1;jettySize=auto;html=1;exitX=0.5;exitY=1;exitDx=0;exitDy=0;entryX=0.5;entryY=0;entryDx=0;entryDy=0;" edge="1" parent="1" source="CMeHVCq6akD1vDtVrRgv-4" target="CMeHVCq6akD1vDtVrRgv-1">
          <mxGeometry relative="1" as="geometry" />
        </mxCell>
        <mxCell id="CMeHVCq6akD1vDtVrRgv-26" style="edgeStyle=orthogonalEdgeStyle;shape=link;rounded=0;orthogonalLoop=1;jettySize=auto;html=1;exitX=1;exitY=0.5;exitDx=0;exitDy=0;entryX=0;entryY=0.5;entryDx=0;entryDy=0;" edge="1" parent="1" source="CMeHVCq6akD1vDtVrRgv-4" target="CMeHVCq6akD1vDtVrRgv-25">
          <mxGeometry relative="1" as="geometry">
            <mxPoint x="470" y="180" as="targetPoint" />
          </mxGeometry>
        </mxCell>
        <mxCell id="CMeHVCq6akD1vDtVrRgv-4" value="???" style="rounded=0;whiteSpace=wrap;html=1;" vertex="1" parent="1">
          <mxGeometry x="150" y="140" width="120" height="60" as="geometry" />
        </mxCell>
        <mxCell id="CMeHVCq6akD1vDtVrRgv-11" value="Amber" style="rounded=0;whiteSpace=wrap;html=1;" vertex="1" parent="1">
          <mxGeometry x="150" y="390" width="120" height="60" as="geometry" />
        </mxCell>
        <mxCell id="CMeHVCq6akD1vDtVrRgv-16" value="Dwajon" style="rounded=0;whiteSpace=wrap;html=1;" vertex="1" parent="1">
          <mxGeometry x="325" y="390" width="120" height="60" as="geometry" />
        </mxCell>
        <mxCell id="CMeHVCq6akD1vDtVrRgv-28" style="edgeStyle=orthogonalEdgeStyle;rounded=0;orthogonalLoop=1;jettySize=auto;html=1;exitX=0.5;exitY=1;exitDx=0;exitDy=0;entryX=0.5;entryY=0;entryDx=0;entryDy=0;" edge="1" parent="1" source="CMeHVCq6akD1vDtVrRgv-25" target="CMeHVCq6akD1vDtVrRgv-2">
          <mxGeometry relative="1" as="geometry" />
        </mxCell>
        <mxCell id="CMeHVCq6akD1vDtVrRgv-25" value="???" style="rounded=0;whiteSpace=wrap;html=1;" vertex="1" parent="1">
          <mxGeometry x="610" y="140" width="120" height="60" as="geometry" />
        </mxCell>
      </root>
    </mxGraphModel>
  </diagram>
</mxfile>
